<svg id="svg" xmlns="http://www.w3.org/2000/svg" xmlns:xlink="http://www.w3.org/1999/xlink" width="400" height="400" viewBox="0, 0, 400,400"><g id="svgg"><path id="path0" d="M330.648 67.983 C 329.915 68.267,328.339 68.692,327.146 68.927 C 322.307 69.883,309.319 77.448,303.390 82.765 C 302.033 83.982,299.051 86.549,296.763 88.470 C 291.478 92.908,284.531 100.701,280.986 106.169 C 279.472 108.504,277.760 110.992,277.181 111.697 C 275.810 113.368,275.700 115.392,276.982 115.392 C 278.004 115.392,279.452 113.929,280.499 111.838 C 284.228 104.395,301.834 86.793,313.129 79.214 C 342.017 59.832,355.534 70.111,367.006 120.184 C 367.726 123.327,368.888 128.304,369.588 131.244 C 370.288 134.184,371.119 138.747,371.435 141.382 C 371.751 144.018,372.246 147.502,372.535 149.124 C 373.150 152.576,373.848 162.500,374.159 172.203 C 374.391 179.479,374.631 180.425,376.189 180.202 C 376.936 180.095,376.958 179.910,376.929 173.825 C 376.889 165.245,375.458 146.405,374.761 145.276 C 374.657 145.109,374.245 142.387,373.844 139.227 C 371.121 117.774,361.567 87.232,354.434 77.178 C 349.334 69.990,337.392 65.373,330.648 67.983 M74.110 69.162 C 66.640 71.170,63.281 76.307,56.535 96.037 C 52.704 107.240,47.334 128.769,46.440 136.507 C 46.224 138.378,45.732 141.484,45.347 143.410 C 43.749 151.403,42.145 173.070,42.989 175.269 C 43.120 175.612,43.645 175.853,44.262 175.853 C 45.578 175.853,45.611 175.670,45.869 166.820 C 46.401 148.644,50.008 127.230,55.675 108.609 C 58.889 98.047,63.778 83.949,65.302 80.848 C 72.756 65.678,91.688 68.917,116.129 89.543 C 121.271 93.882,137.939 110.185,140.013 112.903 C 141.922 115.404,144.806 115.229,143.445 112.694 C 142.008 110.019,121.854 90.014,115.323 84.779 C 99.497 72.096,84.434 66.388,74.110 69.162 M331.011 84.431 C 323.931 85.627,311.155 96.013,300.635 109.124 C 294.469 116.810,293.330 118.959,294.960 119.831 C 296.185 120.487,296.498 120.171,300.697 114.034 C 311.453 98.313,327.704 86.105,336.442 87.181 C 349.074 88.737,356.619 113.517,356.511 153.091 C 356.482 163.731,356.701 165.161,358.367 165.161 C 359.959 165.161,359.936 165.501,359.480 148.475 C 358.983 129.948,358.815 128.077,356.646 116.899 C 351.559 90.677,344.790 82.103,331.011 84.431 M76.732 88.727 C 71.173 92.208,70.834 93.237,64.876 124.608 C 61.737 141.141,61.188 155.518,63.683 155.876 C 64.749 156.030,64.802 155.740,65.261 147.281 C 66.060 132.533,67.177 125.630,72.675 101.479 C 75.102 90.821,79.930 87.668,88.948 90.850 C 95.167 93.045,115.913 111.418,118.648 117.152 C 119.367 118.659,121.384 118.794,121.590 117.348 C 121.773 116.059,121.027 115.011,115.944 109.428 C 101.261 93.297,92.598 87.268,83.871 87.108 L 79.447 87.027 76.732 88.727 M242.673 122.070 C 241.316 122.939,241.184 123.307,238.992 132.384 L 237.604 138.133 232.074 136.898 C 221.886 134.623,218.612 135.128,213.691 139.731 C 209.902 143.276,210.609 146.811,214.431 143.435 C 219.179 139.241,221.872 138.813,229.701 141.010 C 232.223 141.717,234.732 142.298,235.278 142.300 C 235.823 142.302,236.346 142.429,236.440 142.581 C 236.730 143.053,235.583 149.980,234.287 155.576 C 232.784 162.068,232.040 166.559,231.537 172.181 C 230.085 188.400,215.793 215.668,208.744 215.668 C 205.989 215.668,205.423 212.685,206.640 204.580 C 207.457 199.143,207.725 198.086,210.165 190.685 C 213.022 182.020,213.087 180.090,210.590 178.188 C 206.715 175.238,201.841 176.830,200.249 181.567 C 196.521 192.661,183.327 206.632,177.421 205.739 C 174.445 205.289,174.190 204.811,174.219 199.716 C 174.283 188.595,180.701 171.917,187.775 164.492 C 192.012 160.045,198.012 160.770,201.139 166.106 C 202.474 168.384,204.608 168.574,204.608 166.415 C 204.608 160.131,195.574 156.357,187.024 159.069 C 175.237 162.807,164.427 177.314,163.302 190.903 C 162.859 196.259,158.967 201.406,151.566 206.424 C 128.594 221.997,114.194 203.580,126.966 174.962 C 133.514 160.293,146.353 156.090,153.475 166.285 C 156.297 170.324,158.964 168.185,156.294 164.025 C 153.074 159.008,147.885 156.784,140.227 157.138 C 117.547 158.187,101.203 192.481,115.781 208.431 C 126.189 219.820,148.125 217.145,161.012 202.917 L 163.490 200.180 164.733 202.671 C 166.865 206.943,168.564 208.229,173.142 209.039 C 180.805 210.395,186.161 207.787,193.332 199.207 C 195.341 196.805,197.165 194.637,197.386 194.391 C 197.677 194.066,197.714 195.338,197.519 198.999 C 196.913 210.387,198.703 215.784,203.978 218.480 C 211.483 222.315,219.021 215.364,227.307 196.971 L 228.838 193.573 229.042 202.501 C 229.177 208.431,229.456 212.604,229.871 214.931 C 232.500 229.648,240.929 234.204,249.243 225.401 C 255.116 219.181,266.848 198.186,270.441 187.465 C 271.189 185.235,272.277 182.461,272.859 181.301 C 274.197 178.634,274.207 178.703,272.388 178.135 C 270.481 177.540,270.485 177.536,268.950 181.829 C 261.114 203.755,246.791 227.013,241.679 226.114 C 237.144 225.316,234.566 215.734,236.074 205.282 C 236.406 202.985,237.423 195.879,238.335 189.490 C 239.756 179.525,240.439 176.040,243.137 164.974 C 244.867 157.879,246.653 150.532,247.105 148.648 L 247.926 145.222 255.484 145.101 C 264.910 144.949,267.282 144.369,270.189 141.506 C 273.781 137.969,272.530 134.711,268.849 138.017 C 267.014 139.665,264.166 141.067,261.992 141.393 C 260.232 141.657,249.663 140.899,249.429 140.491 C 249.362 140.373,250.115 137.373,251.104 133.825 C 253.109 126.628,253.177 125.060,251.567 123.146 C 249.924 121.194,244.976 120.595,242.673 122.070 M134.747 242.729 C 127.327 245.081,116.018 257.636,109.308 270.968 C 108.747 272.083,107.771 273.738,107.139 274.646 C 106.508 275.554,105.908 276.504,105.806 276.756 C 105.705 277.008,105.679 274.440,105.748 271.049 C 106.011 258.200,104.048 250.220,99.460 245.493 C 95.218 241.121,88.655 241.573,84.525 246.520 C 78.740 253.451,70.316 270.267,65.977 283.545 C 64.924 286.768,63.487 289.970,63.217 289.699 C 63.138 289.621,63.557 286.411,64.148 282.566 C 65.657 272.736,67.205 258.560,66.984 256.590 C 66.493 252.199,59.078 249.562,54.933 252.305 C 52.526 253.898,52.375 254.354,51.596 262.364 C 51.205 266.387,50.724 270.922,50.527 272.442 C 48.351 289.258,48.495 303.782,50.901 310.214 C 51.947 313.009,52.385 313.364,54.783 313.364 C 58.472 313.364,60.049 311.002,64.382 298.986 C 76.146 266.356,84.727 249.217,89.298 249.217 C 91.527 249.217,92.450 253.333,91.648 259.692 C 88.948 281.081,89.853 293.325,94.271 295.171 C 99.753 297.462,101.236 295.907,112.077 276.498 C 117.013 267.661,125.587 254.868,128.167 252.488 C 135.916 245.342,136.900 248.275,131.978 263.858 C 122.692 293.260,123.190 307.083,133.722 312.302 C 136.494 313.677,143.796 313.603,146.855 312.170 C 151.055 310.203,155.948 304.588,159.950 297.143 C 160.986 295.217,161.835 293.955,161.838 294.339 C 161.847 295.551,164.364 300.337,166.180 302.597 C 178.024 317.330,196.212 313.133,205.912 293.428 L 207.287 290.635 211.386 289.812 C 218.900 288.304,225.415 283.708,228.363 277.838 L 228.944 276.682 228.768 278.157 C 227.691 287.186,227.707 302.357,228.798 307.194 C 229.946 312.281,230.787 313.350,233.650 313.358 C 237.263 313.369,238.873 310.942,243.183 298.986 C 254.948 266.356,263.529 249.217,268.100 249.217 C 270.329 249.217,271.252 253.333,270.449 259.692 C 267.749 281.081,268.655 293.325,273.073 295.171 C 278.555 297.462,280.037 295.907,290.879 276.498 C 295.815 267.661,304.389 254.868,306.969 252.488 C 314.627 245.427,315.703 248.358,310.940 263.305 C 299.690 298.607,302.429 314.004,319.833 313.312 C 330.962 312.869,342.155 296.626,349.138 270.783 C 349.576 269.161,350.416 266.728,351.004 265.376 C 352.421 262.120,352.391 261.478,350.795 260.811 C 348.308 259.771,348.304 259.778,345.071 269.677 C 337.052 294.236,327.967 308.957,320.844 308.934 C 316.569 308.921,316.423 304.436,320.170 288.180 C 328.977 249.963,328.355 241.612,316.752 242.284 C 308.337 242.771,296.167 254.959,288.110 270.968 C 287.549 272.083,286.573 273.738,285.941 274.646 C 285.309 275.554,284.710 276.504,284.608 276.756 C 284.507 277.008,284.481 274.440,284.550 271.049 C 284.813 258.200,282.849 250.220,278.262 245.493 C 274.020 241.121,267.456 241.573,263.327 246.520 C 257.542 253.451,249.118 270.267,244.779 283.545 C 243.725 286.768,242.289 289.970,242.018 289.699 C 241.940 289.621,242.359 286.411,242.949 282.566 C 244.459 272.736,246.007 258.560,245.786 256.590 C 245.295 252.199,237.879 249.562,233.735 252.305 C 231.508 253.779,231.158 254.578,230.785 259.038 C 229.773 271.153,221.076 283.067,211.330 285.691 C 209.937 286.066,209.160 286.067,209.285 285.694 C 210.829 281.062,212.488 268.795,211.992 265.685 C 209.428 249.637,191.066 248.919,186.145 264.674 C 182.310 276.950,190.207 290.507,201.192 290.507 L 202.434 290.507 200.930 293.397 C 196.086 302.708,186.871 308.822,181.706 306.152 C 175.629 303.009,172.252 282.372,175.634 269.040 C 178.423 258.043,184.011 250.345,189.217 250.326 C 190.212 250.323,190.230 250.282,190.230 248.056 L 190.230 245.790 186.820 246.003 C 170.404 247.025,159.519 261.356,159.651 281.774 L 159.691 287.972 157.844 291.728 C 151.640 304.348,144.138 311.380,139.810 308.633 C 137.985 307.474,138.510 300.580,141.368 288.180 C 148.246 258.336,149.022 248.864,144.963 244.293 C 143.256 242.371,138.279 241.609,134.747 242.729 M204.314 258.365 C 209.335 261.468,209.907 269.265,206.018 281.567 L 204.474 286.452 203.133 286.452 C 197.858 286.452,194.488 283.238,192.787 276.588 C 190.015 265.751,197.393 254.088,204.314 258.365 " stroke="none" fill="#000000" fill-rule="evenodd"></path></g></svg>